<svg width="86" height="36" viewBox="0 0 86 36" fill="none" xmlns="http://www.w3.org/2000/svg">
<g clip-path="url(#paint0_diamond_2010_559_clip_path)" data-figma-skip-parse="true"><g transform="matrix(0.012813 0.0109226 -0.0149967 0.0175923 10.4063 19.6563)"><rect x="0" y="0" width="1572.91" height="1241.25" fill="url(#paint0_diamond_2010_559)" opacity="1" shape-rendering="crispEdges"/><rect x="0" y="0" width="1572.91" height="1241.25" transform="scale(1 -1)" fill="url(#paint0_diamond_2010_559)" opacity="1" shape-rendering="crispEdges"/><rect x="0" y="0" width="1572.91" height="1241.25" transform="scale(-1 1)" fill="url(#paint0_diamond_2010_559)" opacity="1" shape-rendering="crispEdges"/><rect x="0" y="0" width="1572.91" height="1241.25" transform="scale(-1)" fill="url(#paint0_diamond_2010_559)" opacity="1" shape-rendering="crispEdges"/></g></g><path d="M6.68448 23.1868L5.84892 19.2179H17.14L19.2179 23.1868H6.68448Z" data-figma-gradient-fill="{&#34;type&#34;:&#34;GRADIENT_DIAMOND&#34;,&#34;stops&#34;:[{&#34;color&#34;:{&#34;r&#34;:0.67277598381042480,&#34;g&#34;:0.61618834733963013,&#34;b&#34;:1.0,&#34;a&#34;:1.0},&#34;position&#34;:0.0},{&#34;color&#34;:{&#34;r&#34;:0.47843137383460999,&#34;g&#34;:0.38823530077934265,&#34;b&#34;:1.0,&#34;a&#34;:1.0},&#34;position&#34;:1.0}],&#34;stopsVar&#34;:[{&#34;color&#34;:{&#34;r&#34;:0.67277598381042480,&#34;g&#34;:0.61618834733963013,&#34;b&#34;:1.0,&#34;a&#34;:1.0},&#34;position&#34;:0.0},{&#34;color&#34;:{&#34;r&#34;:0.47843137383460999,&#34;g&#34;:0.38823530077934265,&#34;b&#34;:1.0,&#34;a&#34;:1.0},&#34;position&#34;:1.0}],&#34;transform&#34;:{&#34;m00&#34;:25.626066207885742,&#34;m01&#34;:-29.993440628051758,&#34;m02&#34;:12.589938163757324,&#34;m10&#34;:21.845176696777344,&#34;m11&#34;:35.184608459472656,&#34;m12&#34;:-8.8586406707763672},&#34;opacity&#34;:1.0,&#34;blendMode&#34;:&#34;NORMAL&#34;,&#34;visible&#34;:true}"/>
<g clip-path="url(#paint1_diamond_2010_559_clip_path)" data-figma-skip-parse="true"><g transform="matrix(0.012813 0.0109226 -0.0149967 0.0175923 10.4063 19.6563)"><rect x="0" y="0" width="1572.91" height="1241.25" fill="url(#paint1_diamond_2010_559)" opacity="1" shape-rendering="crispEdges"/><rect x="0" y="0" width="1572.91" height="1241.25" transform="scale(1 -1)" fill="url(#paint1_diamond_2010_559)" opacity="1" shape-rendering="crispEdges"/><rect x="0" y="0" width="1572.91" height="1241.25" transform="scale(-1 1)" fill="url(#paint1_diamond_2010_559)" opacity="1" shape-rendering="crispEdges"/><rect x="0" y="0" width="1572.91" height="1241.25" transform="scale(-1)" fill="url(#paint1_diamond_2010_559)" opacity="1" shape-rendering="crispEdges"/></g></g><path d="M17.0401 5.86874L8.3889 4.568L21.3068 32.7957L31.1246 35.7202L17.0401 5.86874Z" data-figma-gradient-fill="{&#34;type&#34;:&#34;GRADIENT_DIAMOND&#34;,&#34;stops&#34;:[{&#34;color&#34;:{&#34;r&#34;:0.67277598381042480,&#34;g&#34;:0.61618834733963013,&#34;b&#34;:1.0,&#34;a&#34;:1.0},&#34;position&#34;:0.0},{&#34;color&#34;:{&#34;r&#34;:0.47843137383460999,&#34;g&#34;:0.38823530077934265,&#34;b&#34;:1.0,&#34;a&#34;:1.0},&#34;position&#34;:1.0}],&#34;stopsVar&#34;:[{&#34;color&#34;:{&#34;r&#34;:0.67277598381042480,&#34;g&#34;:0.61618834733963013,&#34;b&#34;:1.0,&#34;a&#34;:1.0},&#34;position&#34;:0.0},{&#34;color&#34;:{&#34;r&#34;:0.47843137383460999,&#34;g&#34;:0.38823530077934265,&#34;b&#34;:1.0,&#34;a&#34;:1.0},&#34;position&#34;:1.0}],&#34;transform&#34;:{&#34;m00&#34;:25.626066207885742,&#34;m01&#34;:-29.993440628051758,&#34;m02&#34;:12.589938163757324,&#34;m10&#34;:21.845176696777344,&#34;m11&#34;:35.184608459472656,&#34;m12&#34;:-8.8586406707763672},&#34;opacity&#34;:1.0,&#34;blendMode&#34;:&#34;NORMAL&#34;,&#34;visible&#34;:true}"/>
<g clip-path="url(#paint2_diamond_2010_559_clip_path)" data-figma-skip-parse="true"><g transform="matrix(0.012813 0.0109226 -0.0149967 0.0175923 10.4063 19.6563)"><rect x="0" y="0" width="1572.91" height="1241.25" fill="url(#paint2_diamond_2010_559)" opacity="1" shape-rendering="crispEdges"/><rect x="0" y="0" width="1572.91" height="1241.25" transform="scale(1 -1)" fill="url(#paint2_diamond_2010_559)" opacity="1" shape-rendering="crispEdges"/><rect x="0" y="0" width="1572.91" height="1241.25" transform="scale(-1 1)" fill="url(#paint2_diamond_2010_559)" opacity="1" shape-rendering="crispEdges"/><rect x="0" y="0" width="1572.91" height="1241.25" transform="scale(-1)" fill="url(#paint2_diamond_2010_559)" opacity="1" shape-rendering="crispEdges"/></g></g><path d="M0 4.80447L7.31115 0V30.0802L0 35.6157V4.80447Z" data-figma-gradient-fill="{&#34;type&#34;:&#34;GRADIENT_DIAMOND&#34;,&#34;stops&#34;:[{&#34;color&#34;:{&#34;r&#34;:0.67277598381042480,&#34;g&#34;:0.61618834733963013,&#34;b&#34;:1.0,&#34;a&#34;:1.0},&#34;position&#34;:0.0},{&#34;color&#34;:{&#34;r&#34;:0.47843137383460999,&#34;g&#34;:0.38823530077934265,&#34;b&#34;:1.0,&#34;a&#34;:1.0},&#34;position&#34;:1.0}],&#34;stopsVar&#34;:[{&#34;color&#34;:{&#34;r&#34;:0.67277598381042480,&#34;g&#34;:0.61618834733963013,&#34;b&#34;:1.0,&#34;a&#34;:1.0},&#34;position&#34;:0.0},{&#34;color&#34;:{&#34;r&#34;:0.47843137383460999,&#34;g&#34;:0.38823530077934265,&#34;b&#34;:1.0,&#34;a&#34;:1.0},&#34;position&#34;:1.0}],&#34;transform&#34;:{&#34;m00&#34;:25.626066207885742,&#34;m01&#34;:-29.993440628051758,&#34;m02&#34;:12.589938163757324,&#34;m10&#34;:21.845176696777344,&#34;m11&#34;:35.184608459472656,&#34;m12&#34;:-8.8586406707763672},&#34;opacity&#34;:1.0,&#34;blendMode&#34;:&#34;NORMAL&#34;,&#34;visible&#34;:true}"/>
<path d="M38.1853 19.3254V16.4139H49.7861V19.3254H38.1853ZM47.7323 10.478H50.9598V26.2768H47.7323V10.478ZM37.1245 10.478H40.352V26.2768H37.1245V10.478Z" fill="#EEEBFF"/>
<path d="M56.166 23.0494C56.166 23.3503 56.2412 23.6136 56.3917 23.8393C56.5421 24.05 56.7453 24.2155 57.001 24.3358C57.2719 24.4412 57.5653 24.4938 57.8813 24.4938C58.3327 24.4938 58.7389 24.4036 59.1 24.223C59.4611 24.0274 59.7546 23.7566 59.9803 23.4105C60.2059 23.0494 60.3188 22.6205 60.3188 22.124L60.6799 23.4782C60.6799 24.1402 60.4918 24.697 60.1157 25.1484C59.7546 25.5998 59.2806 25.9383 58.6938 26.164C58.122 26.3897 57.5202 26.5025 56.8882 26.5025C56.2412 26.5025 55.6393 26.3746 55.0826 26.1189C54.5259 25.8631 54.0745 25.4944 53.7284 25.0129C53.3974 24.5164 53.2319 23.9145 53.2319 23.2074C53.2319 22.1992 53.5855 21.4018 54.2927 20.815C54.9999 20.2282 56.0005 19.9347 57.2945 19.9347C57.9565 19.9347 58.5358 20.0025 59.0323 20.1379C59.5439 20.2733 59.9727 20.4388 60.3188 20.6344C60.6649 20.83 60.9131 21.0181 61.0636 21.1987V22.5528C60.6573 22.2519 60.1984 22.0262 59.6868 21.8757C59.1903 21.7253 58.6637 21.65 58.107 21.65C57.6556 21.65 57.2869 21.7102 57.001 21.8306C56.7152 21.9359 56.5045 22.0939 56.3691 22.3046C56.2337 22.5002 56.166 22.7484 56.166 23.0494ZM55.0375 18.8288L53.9541 16.8427C54.4958 16.5568 55.1579 16.286 55.9403 16.0302C56.7227 15.7593 57.5954 15.6239 58.5584 15.6239C59.4461 15.6239 60.236 15.7518 60.9282 16.0076C61.6203 16.2634 62.162 16.6396 62.5532 17.1361C62.9444 17.6176 63.14 18.2119 63.14 18.9191V26.2768H60.3188V19.5285C60.3188 19.2426 60.2737 19.0019 60.1834 18.8063C60.0931 18.5956 59.9502 18.4226 59.7546 18.2872C59.574 18.1517 59.3558 18.0539 59.1 17.9938C58.8442 17.9336 58.5584 17.9035 58.2424 17.9035C57.7609 17.9035 57.302 17.9561 56.8656 18.0615C56.4293 18.1668 56.0531 18.2947 55.7371 18.4451C55.4212 18.5956 55.1879 18.7235 55.0375 18.8288Z" fill="#EEEBFF"/>
<path d="M75.6347 15.8948L68.8637 31.2422H65.862L68.4801 25.2386L64.1692 15.8948H67.4193L70.7596 24.1553L69.3151 24.1102L72.5877 15.8948H75.6347Z" fill="#EEEBFF"/>
<path d="M79.0222 23.0494C79.0222 23.3503 79.0975 23.6136 79.2479 23.8393C79.3984 24.05 79.6015 24.2155 79.8573 24.3358C80.1282 24.4412 80.4216 24.4938 80.7375 24.4938C81.1889 24.4938 81.5952 24.4036 81.9563 24.223C82.3174 24.0274 82.6108 23.7566 82.8365 23.4105C83.0622 23.0494 83.1751 22.6205 83.1751 22.124L83.5362 23.4782C83.5362 24.1402 83.3481 24.697 82.9719 25.1484C82.6108 25.5998 82.1369 25.9383 81.55 26.164C80.9783 26.3897 80.3764 26.5025 79.7445 26.5025C79.0975 26.5025 78.4956 26.3746 77.9389 26.1189C77.3822 25.8631 76.9308 25.4944 76.5847 25.0129C76.2537 24.5164 76.0882 23.9145 76.0882 23.2074C76.0882 22.1992 76.4418 21.4018 77.1489 20.815C77.8561 20.2282 78.8567 19.9347 80.1507 19.9347C80.8128 19.9347 81.3921 20.0025 81.8886 20.1379C82.4002 20.2733 82.829 20.4388 83.1751 20.6344C83.5211 20.83 83.7694 21.0181 83.9199 21.1987V22.5528C83.5136 22.2519 83.0547 22.0262 82.5431 21.8757C82.0466 21.7253 81.52 21.65 80.9632 21.65C80.5118 21.65 80.1432 21.7102 79.8573 21.8306C79.5714 21.9359 79.3608 22.0939 79.2254 22.3046C79.0899 22.5002 79.0222 22.7484 79.0222 23.0494ZM77.8938 18.8288L76.8104 16.8427C77.3521 16.5568 78.0141 16.286 78.7965 16.0302C79.579 15.7593 80.4517 15.6239 81.4146 15.6239C82.3024 15.6239 83.0923 15.7518 83.7845 16.0076C84.4766 16.2634 85.0183 16.6396 85.4095 17.1361C85.8007 17.6176 85.9963 18.2119 85.9963 18.9191V26.2768H83.1751V19.5285C83.1751 19.2426 83.1299 19.0019 83.0397 18.8063C82.9494 18.5956 82.8064 18.4226 82.6108 18.2872C82.4303 18.1517 82.2121 18.0539 81.9563 17.9938C81.7005 17.9336 81.4146 17.9035 81.0987 17.9035C80.6172 17.9035 80.1582 17.9561 79.7219 18.0615C79.2856 18.1668 78.9094 18.2947 78.5934 18.4451C78.2774 18.5956 78.0442 18.7235 77.8938 18.8288Z" fill="#EEEBFF"/>
<defs>
<clipPath id="paint0_diamond_2010_559_clip_path"><path d="M6.68448 23.1868L5.84892 19.2179H17.14L19.2179 23.1868H6.68448Z"/></clipPath><clipPath id="paint1_diamond_2010_559_clip_path"><path d="M17.0401 5.86874L8.3889 4.568L21.3068 32.7957L31.1246 35.7202L17.0401 5.86874Z"/></clipPath><clipPath id="paint2_diamond_2010_559_clip_path"><path d="M0 4.80447L7.31115 0V30.0802L0 35.6157V4.80447Z"/></clipPath><linearGradient id="paint0_diamond_2010_559" x1="0" y1="0" x2="500" y2="500" gradientUnits="userSpaceOnUse">
<stop stop-color="#AC9DFF"/>
<stop offset="1" stop-color="#7A63FF"/>
</linearGradient>
<linearGradient id="paint1_diamond_2010_559" x1="0" y1="0" x2="500" y2="500" gradientUnits="userSpaceOnUse">
<stop stop-color="#AC9DFF"/>
<stop offset="1" stop-color="#7A63FF"/>
</linearGradient>
<linearGradient id="paint2_diamond_2010_559" x1="0" y1="0" x2="500" y2="500" gradientUnits="userSpaceOnUse">
<stop stop-color="#AC9DFF"/>
<stop offset="1" stop-color="#7A63FF"/>
</linearGradient>
</defs>
</svg>
