<svg width="119" height="43" viewBox="0 0 119 43" fill="none" xmlns="http://www.w3.org/2000/svg">
<path d="M21.3869 14.3696C20.0502 10.9164 19.8274 5.90378 20.1616 3.34176L20.0502 2.7848L20.3844 3.00759C20.8299 1.4481 21.3869 0.445569 21.7211 0C22.0552 0.445569 22.6122 1.4481 23.0578 3.00759L23.3919 2.7848L23.2806 3.34176C23.6147 5.90378 23.3919 10.9164 22.0552 14.3696H21.3869Z" fill="url(#paint0_linear_175_9380)"/>
<path d="M23.0113 14.1382C22.4462 10.624 22.9289 6.97311 23.6395 5.06865L23.6364 4.50067L23.9219 4.78313C24.4838 3.64409 25.2006 2.8756 25.483 2.59007C25.6379 2.96062 26.0146 3.94165 26.1089 5.20822L26.4794 5.05329L26.2638 5.57876C26.2092 7.61075 25.2891 11.1766 23.4487 14.2232L23.0113 14.1382Z" fill="url(#paint1_linear_175_9380)"/>
<path d="M25.5356 15.3916C26.2781 11.7639 28.801 7.42672 30.4673 5.45216L30.6748 4.9234L30.8354 5.29149C32.0534 4.22052 33.064 3.6783 33.586 3.48416C33.6262 4.03967 33.5527 5.18416 33.0844 6.73696L33.4859 6.73023L33.0911 7.13853C31.987 9.47445 29.0893 13.5708 26.0978 15.7529L25.5356 15.3916Z" fill="url(#paint2_linear_175_9380)"/>
<path d="M27.0272 16.0753C28.4519 12.8135 30.8319 10.0032 32.4594 8.78536L32.7639 8.30589L32.8514 8.69788C33.9399 8.04347 34.9583 7.78453 35.3503 7.69706C35.2803 8.09254 35.0668 9.12148 34.4612 10.2379L34.8567 10.3079L34.3912 10.6334C33.2467 12.3132 30.5447 14.8155 27.3492 16.3833L27.0272 16.0753Z" fill="url(#paint3_linear_175_9380)"/>
<path d="M28.4722 18.4931C31.0578 15.8425 35.5248 13.5572 37.994 12.7966L38.4544 12.4639L38.3906 12.8604C39.9942 12.6178 41.1375 12.7079 41.6816 12.8267C41.4152 13.3158 40.7347 14.2389 39.5013 15.2922L39.8428 15.5036L39.2899 15.6337C37.0984 17.0021 32.4463 18.8822 28.7499 19.101L28.4722 18.4931Z" fill="url(#paint4_linear_175_9380)"/>
<path d="M29.3576 19.8746C32.3193 17.9005 35.8407 16.8227 37.8683 16.6778L38.3836 16.439L38.2453 16.816C39.5148 16.8538 40.5117 17.1865 40.8887 17.3248C40.6161 17.6197 39.8802 18.3699 38.7673 18.9819L39.0622 19.2546L38.4946 19.2768C36.6237 20.0714 32.9979 20.7161 29.462 20.3078L29.3576 19.8746Z" fill="url(#paint5_linear_175_9380)"/>
<path d="M29.2664 22.6912C32.8746 21.8594 37.868 22.3521 40.3564 23.0474L40.9235 23.0164L40.6554 23.3155C42.1357 23.9784 43.0488 24.6723 43.4422 25.0665C42.9537 25.3339 41.8821 25.7425 40.2751 25.9617L40.448 26.3242L39.9126 26.1347C37.3291 26.1009 32.3991 25.1672 29.1713 23.3527L29.2664 22.6912Z" fill="url(#paint6_linear_175_9380)"/>
<path d="M29.2643 24.3322C32.8231 24.2728 36.3682 25.27 38.1522 26.2444L38.7148 26.3222L38.3946 26.5646C39.4421 27.2828 40.1008 28.1016 40.3433 28.4218C39.9544 28.5224 38.9298 28.7557 37.6627 28.6688L37.7633 29.0576L37.2739 28.7694C35.2703 28.4263 31.8716 27.0082 29.1179 24.753L29.2643 24.3322Z" fill="url(#paint7_linear_175_9380)"/>
<path d="M27.6644 26.6522C31.1495 27.9034 35.0836 31.0176 36.801 32.948L37.2948 33.2285L36.9076 33.3352C37.7944 34.6932 38.1873 35.7706 38.3052 36.315C37.7496 36.2757 36.6273 36.0401 35.1569 35.3556L35.1064 35.754L34.7584 35.3051C32.6034 33.8799 28.961 30.4289 27.2267 27.1573L27.6644 26.6522Z" fill="url(#paint8_linear_175_9380)"/>
<path d="M26.7754 28.0314C29.8013 29.9056 32.2443 32.6613 33.2182 34.4455L33.6495 34.8152L33.249 34.846C33.7419 36.0165 33.8533 37.0614 33.8841 37.4619C33.5026 37.3363 32.5145 36.9785 31.4956 36.2203L31.37 36.6018L31.1141 36.0947C29.6142 34.7228 27.5218 31.6923 26.4247 28.3063L26.7754 28.0314Z" fill="url(#paint9_linear_175_9380)"/>
<path d="M24.1754 29.1181C26.4307 32.0549 28.0563 36.8018 28.4573 39.3542L28.7211 39.8573L28.3377 39.7376C28.3494 41.3595 28.0974 42.4783 27.9023 43C27.4561 42.6665 26.6393 41.8615 25.7725 40.4907L25.5147 40.7985L25.4647 40.2328C24.4224 37.8686 23.2242 32.9962 23.5341 29.3063L24.1754 29.1181Z" fill="url(#paint10_linear_175_9380)"/>
<path d="M22.6815 29.7977C24.2137 33.0104 24.7788 36.6494 24.6334 38.6769L24.7964 39.2211L24.4428 39.0305C24.2246 40.2816 23.7533 41.2209 23.5627 41.5744C23.3097 41.2625 22.6719 40.4273 22.2247 39.2386L21.9128 39.4916L21.9717 38.9267C21.4517 36.9616 21.3301 33.2809 22.2379 29.8393L22.6815 29.7977Z" fill="url(#paint11_linear_175_9380)"/>
<path d="M19.9082 29.3064C20.2181 32.9962 19.0199 37.8686 17.9776 40.2328L17.9276 40.7986L17.6697 40.4907C16.803 41.8615 15.9862 42.6666 15.54 43C15.3449 42.4783 15.0928 41.3595 15.1046 39.7377L14.7212 39.8573L14.9849 39.3543C15.3859 36.8019 17.0116 32.0549 19.2669 29.1181L19.9082 29.3064Z" fill="url(#paint12_linear_175_9380)"/>
<path d="M18.2842 29.0707C17.8366 32.6018 16.3451 35.9689 15.1268 37.5961L14.9698 38.142L14.7754 37.7905C13.9155 38.7252 13.0113 39.2607 12.6598 39.4551C12.6155 39.0559 12.5304 38.0085 12.7968 36.7666L12.3976 36.8109L12.7525 36.3675C13.3772 34.4331 15.2644 31.2708 17.8885 28.8659L18.2842 29.0707Z" fill="url(#paint13_linear_175_9380)"/>
<path d="M16.2155 27.1573C14.4812 30.4288 10.8389 33.8799 8.6838 35.3051L8.33583 35.754L8.28535 35.3556C6.81499 36.0401 5.6926 36.2757 5.13703 36.315C5.25492 35.7706 5.64783 34.6932 6.53461 33.3352L6.1474 33.2285L6.64126 32.948C8.35864 31.0176 12.2928 27.9033 15.7778 26.6522L16.2155 27.1573Z" fill="url(#paint14_linear_175_9380)"/>
<path d="M14.9767 26.081C12.691 28.8094 9.61575 30.8355 7.71111 31.5456L7.28387 31.9199L7.31035 31.5192C6.08161 31.8405 5.03144 31.8021 4.63068 31.7756C4.80926 31.4158 5.30398 30.4887 6.19946 29.588L5.83972 29.4095L6.37804 29.2283C7.94941 27.9388 11.2468 26.299 14.7545 25.6948L14.9767 26.081Z" fill="url(#paint15_linear_175_9380)"/>
<path d="M14.2709 23.3527C11.0431 25.1671 6.11315 26.1009 3.52965 26.1346L2.99421 26.3241L3.16718 25.9617C1.56016 25.7425 0.488583 25.3339 0 25.0665C0.393488 24.6723 1.30657 23.9784 2.7868 23.3155L2.51873 23.0164L3.08587 23.0474C5.57428 22.3521 10.5676 21.8594 14.1758 22.6912L14.2709 23.3527Z" fill="url(#paint16_linear_175_9380)"/>
<path d="M13.8108 21.7777C10.4128 22.8371 6.73034 22.8788 4.74415 22.4463L4.18238 22.5302L4.42134 22.2074C3.21395 21.8133 2.35129 21.2132 2.02848 20.9742C2.37321 20.7682 3.29067 20.2557 4.53094 19.9822L4.32487 19.6375L4.87568 19.7762C6.89475 19.541 10.5553 19.9444 13.8327 21.3326L13.8108 21.7777Z" fill="url(#paint17_linear_175_9380)"/>
<path d="M14.6924 19.101C10.996 18.8821 6.34392 17.0021 4.15236 15.6336L3.59947 15.5035L3.94096 15.2921C2.70758 14.2389 2.02709 13.3157 1.76064 12.8266C2.30478 12.7078 3.44809 12.6177 5.05173 12.8604L4.98793 12.4639L5.44826 12.7966C7.91751 13.5571 12.3844 15.8424 14.97 18.493L14.6924 19.101Z" fill="url(#paint18_linear_175_9380)"/>
<path d="M15.1568 17.5272C11.7255 16.5812 8.60518 14.6252 7.16814 13.1875L6.65023 12.9544L7.02578 12.812C6.22315 11.8277 5.82194 10.8564 5.67958 10.4809C6.081 10.4939 7.12986 10.5589 8.32108 10.9994L8.33411 10.598L8.7225 11.0124C10.5481 11.9063 13.4094 14.2248 15.4158 17.1647L15.1568 17.5272Z" fill="url(#paint19_linear_175_9380)"/>
<path d="M17.3445 15.7529C14.353 13.5707 11.4553 9.47442 10.3512 7.13849L9.95638 6.73019L10.3579 6.73692C9.88959 5.18412 9.81607 4.03963 9.85628 3.48412C10.3783 3.67826 11.3889 4.22048 12.6069 5.29146L12.7676 4.92336L12.975 5.45212C14.6413 7.42668 17.1642 11.7639 17.9068 15.3915L17.3445 15.7529Z" fill="url(#paint20_linear_175_9380)"/>
<path d="M18.5861 14.6799C16.2107 12.0292 14.6427 8.69698 14.2108 6.71068L13.9012 6.23454L14.2941 6.31777C14.1508 5.05581 14.3383 4.02179 14.4215 3.62888C14.7522 3.85683 15.5995 4.47843 16.3636 5.49295L16.5915 5.16228L16.6943 5.7209C17.747 7.45975 18.901 10.957 19 14.5149L18.5861 14.6799Z" fill="url(#paint21_linear_175_9380)"/>
<path d="M65.9098 19.1779V22.7063H53.3969V19.1779H65.9098ZM54.6221 9.36035V33.1445H50.1299V9.36035H54.6221ZM69.2422 9.36035V33.1445H64.75V9.36035H69.2422Z" fill="#7A63FF"/>
<path d="M81.9663 29.3874V21.2361C81.9663 20.6371 81.8629 20.1199 81.656 19.6842C81.4491 19.2486 81.1332 18.911 80.7085 18.6715C80.2838 18.4319 79.7447 18.3121 79.0913 18.3121C78.5142 18.3121 78.0078 18.4101 77.5721 18.6061C77.1474 18.8021 76.8207 19.0798 76.592 19.4392C76.3633 19.7877 76.249 20.1906 76.249 20.648H71.9201C71.9201 19.9184 72.0944 19.2269 72.4429 18.5734C72.7914 17.9091 73.2869 17.3211 73.9294 16.8092C74.5828 16.2865 75.3614 15.8781 76.2653 15.5841C77.1801 15.2901 78.2038 15.143 79.3364 15.143C80.6759 15.143 81.8683 15.3717 82.9138 15.8291C83.9701 16.2756 84.7978 16.9508 85.3967 17.8547C86.0066 18.7586 86.3115 19.8966 86.3115 21.2688V28.979C86.3115 29.8611 86.366 30.618 86.4749 31.2496C86.5947 31.8704 86.7689 32.4094 86.9976 32.8668V33.1445H82.6034C82.3965 32.698 82.2386 32.1317 82.1297 31.4456C82.0208 30.7487 81.9663 30.0626 81.9663 29.3874ZM82.5707 22.3796L82.6034 24.9442H79.8754C79.2002 24.9442 78.6067 25.015 78.0949 25.1566C77.583 25.2872 77.1638 25.4833 76.8371 25.7446C76.5104 25.9951 76.2653 26.3 76.102 26.6594C75.9386 27.0079 75.8569 27.4054 75.8569 27.8519C75.8569 28.2875 75.955 28.6795 76.151 29.028C76.3579 29.3765 76.6519 29.6542 77.0331 29.8611C77.4251 30.0571 77.8825 30.1552 78.4052 30.1552C79.1676 30.1552 79.8319 30.0027 80.3981 29.6978C80.9644 29.382 81.4055 29.0008 81.7213 28.5543C82.0371 28.1078 82.2059 27.6831 82.2277 27.2801L83.4692 29.1424C83.3167 29.5889 83.088 30.0626 82.7831 30.5635C82.4782 31.0645 82.0861 31.5328 81.607 31.9684C81.1278 32.404 80.5506 32.7634 79.8754 33.0465C79.2002 33.3296 78.4161 33.4712 77.5231 33.4712C76.3797 33.4712 75.356 33.2425 74.4521 32.7851C73.5482 32.3277 72.8349 31.7016 72.3122 30.9066C71.7895 30.1116 71.5281 29.2077 71.5281 28.1949C71.5281 27.2584 71.7023 26.4307 72.0508 25.712C72.3993 24.9932 72.9166 24.3888 73.6027 23.8987C74.2888 23.3978 75.1382 23.0221 76.151 22.7716C77.1747 22.5102 78.3454 22.3796 79.6631 22.3796H82.5707Z" fill="#7A63FF"/>
<path d="M93.8901 31.1843L98.6273 15.4697H103.25L96.1607 35.8235C95.9973 36.2591 95.785 36.7328 95.5236 37.2447C95.2731 37.7565 94.9356 38.2411 94.5108 38.6985C94.0861 39.1668 93.5525 39.5479 92.91 39.842C92.2783 40.136 91.5106 40.283 90.6067 40.283C90.2147 40.283 89.8662 40.2558 89.5612 40.2013C89.2563 40.1469 88.9351 40.0761 88.5975 39.989V36.7546C88.7064 36.7655 88.8316 36.7709 88.9732 36.7709C89.1256 36.7818 89.2563 36.7873 89.3652 36.7873C89.9969 36.7873 90.5196 36.711 90.9334 36.5586C91.3472 36.417 91.6794 36.1829 91.9299 35.8562C92.1912 35.5403 92.409 35.1265 92.5833 34.6147L93.8901 31.1843ZM91.5541 15.4697L95.5563 28.489L96.2587 33.0465L93.2857 33.5856L86.8986 15.4697H91.5541Z" fill="#7A63FF"/>
<path d="M113.589 29.3874V21.2361C113.589 20.6371 113.486 20.1199 113.279 19.6842C113.072 19.2486 112.756 18.911 112.332 18.6715C111.907 18.4319 111.368 18.3121 110.714 18.3121C110.137 18.3121 109.631 18.4101 109.195 18.6061C108.771 18.8021 108.444 19.0798 108.215 19.4392C107.986 19.7877 107.872 20.1906 107.872 20.648H103.543C103.543 19.9184 103.717 19.2269 104.066 18.5734C104.414 17.9091 104.91 17.3211 105.552 16.8092C106.206 16.2865 106.985 15.8781 107.888 15.5841C108.803 15.2901 109.827 15.143 110.959 15.143C112.299 15.143 113.491 15.3717 114.537 15.8291C115.593 16.2756 116.421 16.9508 117.02 17.8547C117.63 18.7586 117.935 19.8966 117.935 21.2688V28.979C117.935 29.8611 117.989 30.618 118.098 31.2496C118.218 31.8704 118.392 32.4094 118.621 32.8668V33.1445H114.227C114.02 32.698 113.862 32.1317 113.753 31.4456C113.644 30.7487 113.589 30.0626 113.589 29.3874ZM114.194 22.3796L114.227 24.9442H111.499C110.823 24.9442 110.23 25.015 109.718 25.1566C109.206 25.2872 108.787 25.4833 108.46 25.7446C108.133 25.9951 107.888 26.3 107.725 26.6594C107.562 27.0079 107.48 27.4054 107.48 27.8519C107.48 28.2875 107.578 28.6795 107.774 29.028C107.981 29.3765 108.275 29.6542 108.656 29.8611C109.048 30.0571 109.506 30.1552 110.028 30.1552C110.791 30.1552 111.455 30.0027 112.021 29.6978C112.588 29.382 113.029 29.0008 113.344 28.5543C113.66 28.1078 113.829 27.6831 113.851 27.2801L115.092 29.1424C114.94 29.5889 114.711 30.0626 114.406 30.5635C114.101 31.0645 113.709 31.5328 113.23 31.9684C112.751 32.404 112.174 32.7634 111.499 33.0465C110.823 33.3296 110.039 33.4712 109.146 33.4712C108.003 33.4712 106.979 33.2425 106.075 32.7851C105.171 32.3277 104.458 31.7016 103.935 30.9066C103.413 30.1116 103.151 29.2077 103.151 28.1949C103.151 27.2584 103.325 26.4307 103.674 25.712C104.022 24.9932 104.54 24.3888 105.226 23.8987C105.912 23.3978 106.761 23.0221 107.774 22.7716C108.798 22.5102 109.968 22.3796 111.286 22.3796H114.194Z" fill="#7A63FF"/>
<defs>
<linearGradient id="paint0_linear_175_9380" x1="47.8684" y1="26.4469" x2="5.36052" y2="8.38475" gradientUnits="userSpaceOnUse">
<stop stop-color="#C2B7FF"/>
<stop offset="1" stop-color="#644CF0"/>
</linearGradient>
<linearGradient id="paint1_linear_175_9380" x1="47.8684" y1="26.4469" x2="5.36052" y2="8.38475" gradientUnits="userSpaceOnUse">
<stop stop-color="#C2B7FF"/>
<stop offset="1" stop-color="#644CF0"/>
</linearGradient>
<linearGradient id="paint2_linear_175_9380" x1="47.8684" y1="26.4469" x2="5.36052" y2="8.38475" gradientUnits="userSpaceOnUse">
<stop stop-color="#C2B7FF"/>
<stop offset="1" stop-color="#644CF0"/>
</linearGradient>
<linearGradient id="paint3_linear_175_9380" x1="47.8684" y1="26.4469" x2="5.36052" y2="8.38475" gradientUnits="userSpaceOnUse">
<stop stop-color="#C2B7FF"/>
<stop offset="1" stop-color="#644CF0"/>
</linearGradient>
<linearGradient id="paint4_linear_175_9380" x1="47.8684" y1="26.4469" x2="5.36052" y2="8.38475" gradientUnits="userSpaceOnUse">
<stop stop-color="#C2B7FF"/>
<stop offset="1" stop-color="#644CF0"/>
</linearGradient>
<linearGradient id="paint5_linear_175_9380" x1="47.8684" y1="26.4469" x2="5.36052" y2="8.38475" gradientUnits="userSpaceOnUse">
<stop stop-color="#C2B7FF"/>
<stop offset="1" stop-color="#644CF0"/>
</linearGradient>
<linearGradient id="paint6_linear_175_9380" x1="47.8684" y1="26.4469" x2="5.36052" y2="8.38475" gradientUnits="userSpaceOnUse">
<stop stop-color="#C2B7FF"/>
<stop offset="1" stop-color="#644CF0"/>
</linearGradient>
<linearGradient id="paint7_linear_175_9380" x1="47.8684" y1="26.4469" x2="5.36052" y2="8.38475" gradientUnits="userSpaceOnUse">
<stop stop-color="#C2B7FF"/>
<stop offset="1" stop-color="#644CF0"/>
</linearGradient>
<linearGradient id="paint8_linear_175_9380" x1="47.8684" y1="26.4469" x2="5.36052" y2="8.38475" gradientUnits="userSpaceOnUse">
<stop stop-color="#C2B7FF"/>
<stop offset="1" stop-color="#644CF0"/>
</linearGradient>
<linearGradient id="paint9_linear_175_9380" x1="47.8684" y1="26.4469" x2="5.36052" y2="8.38475" gradientUnits="userSpaceOnUse">
<stop stop-color="#C2B7FF"/>
<stop offset="1" stop-color="#644CF0"/>
</linearGradient>
<linearGradient id="paint10_linear_175_9380" x1="47.8684" y1="26.4469" x2="5.36052" y2="8.38475" gradientUnits="userSpaceOnUse">
<stop stop-color="#C2B7FF"/>
<stop offset="1" stop-color="#644CF0"/>
</linearGradient>
<linearGradient id="paint11_linear_175_9380" x1="47.8684" y1="26.4469" x2="5.36052" y2="8.38475" gradientUnits="userSpaceOnUse">
<stop stop-color="#C2B7FF"/>
<stop offset="1" stop-color="#644CF0"/>
</linearGradient>
<linearGradient id="paint12_linear_175_9380" x1="47.8684" y1="26.4469" x2="5.36052" y2="8.38475" gradientUnits="userSpaceOnUse">
<stop stop-color="#C2B7FF"/>
<stop offset="1" stop-color="#644CF0"/>
</linearGradient>
<linearGradient id="paint13_linear_175_9380" x1="47.8684" y1="26.4469" x2="5.36052" y2="8.38475" gradientUnits="userSpaceOnUse">
<stop stop-color="#C2B7FF"/>
<stop offset="1" stop-color="#644CF0"/>
</linearGradient>
<linearGradient id="paint14_linear_175_9380" x1="47.8684" y1="26.4469" x2="5.36052" y2="8.38475" gradientUnits="userSpaceOnUse">
<stop stop-color="#C2B7FF"/>
<stop offset="1" stop-color="#644CF0"/>
</linearGradient>
<linearGradient id="paint15_linear_175_9380" x1="47.8684" y1="26.4469" x2="5.36052" y2="8.38475" gradientUnits="userSpaceOnUse">
<stop stop-color="#C2B7FF"/>
<stop offset="1" stop-color="#644CF0"/>
</linearGradient>
<linearGradient id="paint16_linear_175_9380" x1="47.8684" y1="26.4469" x2="5.36052" y2="8.38475" gradientUnits="userSpaceOnUse">
<stop stop-color="#C2B7FF"/>
<stop offset="1" stop-color="#644CF0"/>
</linearGradient>
<linearGradient id="paint17_linear_175_9380" x1="47.8684" y1="26.4469" x2="5.36052" y2="8.38475" gradientUnits="userSpaceOnUse">
<stop stop-color="#C2B7FF"/>
<stop offset="1" stop-color="#644CF0"/>
</linearGradient>
<linearGradient id="paint18_linear_175_9380" x1="47.8684" y1="26.4469" x2="5.36052" y2="8.38475" gradientUnits="userSpaceOnUse">
<stop stop-color="#C2B7FF"/>
<stop offset="1" stop-color="#644CF0"/>
</linearGradient>
<linearGradient id="paint19_linear_175_9380" x1="47.8684" y1="26.4469" x2="5.36052" y2="8.38475" gradientUnits="userSpaceOnUse">
<stop stop-color="#C2B7FF"/>
<stop offset="1" stop-color="#644CF0"/>
</linearGradient>
<linearGradient id="paint20_linear_175_9380" x1="47.8684" y1="26.4469" x2="5.36052" y2="8.38475" gradientUnits="userSpaceOnUse">
<stop stop-color="#C2B7FF"/>
<stop offset="1" stop-color="#644CF0"/>
</linearGradient>
<linearGradient id="paint21_linear_175_9380" x1="47.8684" y1="26.4469" x2="5.36052" y2="8.38475" gradientUnits="userSpaceOnUse">
<stop stop-color="#C2B7FF"/>
<stop offset="1" stop-color="#644CF0"/>
</linearGradient>
</defs>
</svg>
