<svg width="142" height="140" viewBox="0 0 142 140" fill="none" xmlns="http://www.w3.org/2000/svg">
<path d="M69.5544 46.2109C65.2558 35.1059 64.5393 18.9859 65.614 10.7467L65.2558 8.9556L66.3304 9.67204C67.7633 4.65691 69.5544 1.4329 70.6291 0C71.7038 1.4329 73.4949 4.65691 74.9278 9.67204L76.0025 8.9556L75.6442 10.7467C76.7189 18.9859 76.0025 35.1059 71.7038 46.2109H69.5544Z" fill="url(#paint0_linear_1494_4968)"/>
<path d="M74.7785 45.4668C72.9611 34.1656 74.5134 22.4247 76.7987 16.3002L76.7888 14.4736L77.707 15.382C79.5138 11.719 81.8188 9.24759 82.7272 8.32937C83.2254 9.521 84.4368 12.6759 84.7399 16.749L85.9315 16.2508L85.2381 17.9407C85.0627 24.4753 82.1038 35.9428 76.1851 45.7402L74.7785 45.4668Z" fill="url(#paint1_linear_1494_4968)"/>
<path d="M82.8965 49.4974C85.2845 37.8314 93.3976 23.8834 98.7564 17.5334L99.4235 15.833L99.9402 17.0168C103.857 13.5726 107.107 11.8289 108.786 11.2046C108.915 12.991 108.679 16.6716 107.173 21.6652L108.464 21.6435L107.194 22.9566C103.643 30.4687 94.3249 43.6419 84.7045 50.6595L82.8965 49.4974Z" fill="url(#paint2_linear_1494_4968)"/>
<path d="M87.6931 51.6962C92.2745 41.2067 99.9284 32.1692 105.162 28.2527L106.142 26.7108L106.423 27.9714C109.923 25.8669 113.199 25.0342 114.459 24.7529C114.234 26.0247 113.547 29.3337 111.6 32.9239L112.872 33.1491L111.375 34.1958C107.694 39.598 99.0047 47.645 88.7285 52.6867L87.6931 51.6962Z" fill="url(#paint3_linear_1494_4968)"/>
<path d="M92.3401 59.4717C100.655 50.9476 115.02 43.5983 122.961 41.1525L124.441 40.0825L124.236 41.3577C129.393 40.5773 133.07 40.867 134.82 41.2492C133.963 42.822 131.775 45.7908 127.808 49.1778L128.907 49.8577L127.128 50.276C120.081 54.6768 105.12 60.7228 93.2331 61.4267L92.3401 59.4717Z" fill="url(#paint4_linear_1494_4968)"/>
<path d="M95.1876 63.9146C104.712 57.5659 116.036 54.0997 122.557 53.6337L124.214 52.8658L123.769 54.0785C127.852 54.2 131.058 55.2698 132.27 55.7145C131.393 56.6628 129.027 59.0755 125.448 61.0435L126.396 61.9204L124.571 61.9918C118.554 64.5473 106.894 66.6205 95.5233 65.3076L95.1876 63.9146Z" fill="url(#paint5_linear_1494_4968)"/>
<path d="M94.894 72.9722C106.498 70.2973 122.556 71.8818 130.558 74.1178L132.382 74.0181L131.52 74.9799C136.28 77.1118 139.216 79.3434 140.482 80.611C138.911 81.4709 135.465 82.7851 130.297 83.4898L130.853 84.6555L129.131 84.046C120.823 83.9375 104.969 80.9347 94.5882 75.0997L94.894 72.9722Z" fill="url(#paint6_linear_1494_4968)"/>
<path d="M94.8876 78.2494C106.332 78.0583 117.733 81.2654 123.47 84.3989L125.279 84.649L124.25 85.4286C127.618 87.7382 129.737 90.3714 130.516 91.4012C129.266 91.7248 125.971 92.475 121.896 92.1954L122.219 93.4458L120.645 92.519C114.202 91.4156 103.272 86.8552 94.4169 79.6027L94.8876 78.2494Z" fill="url(#paint7_linear_1494_4968)"/>
<path d="M89.7423 85.7102C100.95 89.7338 113.602 99.749 119.124 105.957L120.713 106.859L119.467 107.202C122.319 111.569 123.583 115.034 123.962 116.785C122.175 116.658 118.566 115.901 113.837 113.699L113.675 114.981L112.556 113.537C105.625 108.954 93.9121 97.8555 88.3348 87.3345L89.7423 85.7102Z" fill="url(#paint8_linear_1494_4968)"/>
<path d="M86.8831 90.1458C96.6141 96.173 104.471 105.035 107.603 110.773L108.989 111.962L107.702 112.061C109.287 115.825 109.645 119.185 109.744 120.473C108.517 120.069 105.34 118.919 102.063 116.48L101.659 117.707L100.836 116.077C96.0124 111.665 89.2837 101.919 85.7554 91.0297L86.8831 90.1458Z" fill="url(#paint9_linear_1494_4968)"/>
<path d="M78.5221 93.6404C85.7746 103.085 91.0027 118.35 92.2922 126.559L93.1405 128.176L91.9075 127.792C91.9452 133.007 91.1347 136.605 90.5072 138.283C89.0724 137.211 86.4457 134.622 83.6582 130.213L82.8289 131.203L82.6681 129.384C79.3162 121.781 75.4631 106.112 76.4597 94.2458L78.5221 93.6404Z" fill="url(#paint10_linear_1494_4968)"/>
<path d="M73.718 95.8258C78.6452 106.157 80.4627 117.86 79.9951 124.38L80.5191 126.13L79.3822 125.517C78.6803 129.541 77.1647 132.562 76.5518 133.698C75.7381 132.695 73.6871 130.009 72.249 126.187L71.246 127L71.4353 125.184C69.763 118.864 69.3721 107.028 72.2914 95.9597L73.718 95.8258Z" fill="url(#paint11_linear_1494_4968)"/>
<path d="M64.7989 94.2458C65.7956 106.112 61.9425 121.781 58.5906 129.384L58.4298 131.203L57.6004 130.213C54.8129 134.622 52.1862 137.211 50.7515 138.283C50.1239 136.605 49.3134 133.007 49.3512 127.792L48.1182 128.176L48.9664 126.559C50.256 118.35 55.484 103.085 62.7366 93.6404L64.7989 94.2458Z" fill="url(#paint12_linear_1494_4968)"/>
<path d="M59.5765 93.4882C58.1372 104.844 53.3406 115.672 49.4228 120.905L48.9178 122.66L48.2926 121.53C45.5272 124.536 42.6194 126.258 41.4892 126.883C41.3468 125.599 41.0731 122.231 41.9296 118.237L40.6458 118.38L41.7872 116.954C43.7961 110.733 49.8653 100.563 58.3039 92.8297L59.5765 93.4882Z" fill="url(#paint13_linear_1494_4968)"/>
<path d="M52.9243 87.3345C47.3469 97.8555 35.6335 108.954 28.7031 113.537L27.5841 114.981L27.4218 113.699C22.6933 115.901 19.0838 116.658 17.2971 116.785C17.6762 115.034 18.9398 111.569 21.7916 107.202L20.5463 106.859L22.1346 105.957C27.6574 99.749 40.3092 89.7338 51.5167 85.7102L52.9243 87.3345Z" fill="url(#paint14_linear_1494_4968)"/>
<path d="M48.9399 83.8734C41.5894 92.6478 31.6997 99.1634 25.5746 101.447L24.2007 102.651L24.2858 101.362C20.3343 102.395 16.9571 102.272 15.6683 102.187C16.2426 101.03 17.8336 98.0481 20.7134 95.1517L19.5565 94.5774L21.2876 93.9948C26.341 89.848 36.9451 84.5744 48.2254 82.6313L48.9399 83.8734Z" fill="url(#paint15_linear_1494_4968)"/>
<path d="M46.6704 75.0997C36.2901 80.9347 20.4359 83.9375 12.1277 84.0461L10.4058 84.6555L10.962 83.4898C5.79405 82.7851 2.34799 81.4709 0.776767 80.611C2.04218 79.3434 4.97854 77.1118 9.73878 74.9799L8.87671 74.0181L10.7006 74.1178C18.703 71.8818 34.761 70.2973 46.3646 72.9722L46.6704 75.0997Z" fill="url(#paint16_linear_1494_4968)"/>
<path d="M45.1908 70.0344C34.2632 73.4414 22.4209 73.5754 16.0336 72.1848L14.227 72.4544L14.9954 71.4163C11.1126 70.1491 8.33843 68.2191 7.30031 67.4507C8.40892 66.788 11.3594 65.14 15.3479 64.2605L14.6852 63.1519L16.4565 63.5978C22.9496 62.8417 34.7215 64.1388 45.2613 68.6033L45.1908 70.0344Z" fill="url(#paint17_linear_1494_4968)"/>
<path d="M48.0256 61.4267C36.1385 60.7228 21.178 54.6768 14.1302 50.276L12.3522 49.8577L13.4504 49.1778C9.48395 45.7907 7.29557 42.822 6.43872 41.2491C8.1886 40.867 11.8653 40.5773 17.0225 41.3577L16.8173 40.0825L18.2977 41.1525C26.2385 43.5982 40.6036 50.9476 48.9186 59.4716L48.0256 61.4267Z" fill="url(#paint18_linear_1494_4968)"/>
<path d="M49.5194 56.3654C38.4847 53.3231 28.4502 47.0329 23.8288 42.4095L22.1633 41.6596L23.371 41.2018C20.7899 38.0364 19.4996 34.9129 19.0418 33.7052C20.3327 33.7471 23.7057 33.9561 27.5365 35.3727L27.5785 34.0818L28.8275 35.4147C34.6985 38.2893 43.8999 45.7453 50.3525 55.1996L49.5194 56.3654Z" fill="url(#paint19_linear_1494_4968)"/>
<path d="M56.5549 50.6595C46.9345 43.642 37.616 30.4687 34.0653 22.9566L32.7955 21.6436L34.0869 21.6652C32.5807 16.6716 32.3443 12.991 32.4736 11.2046C34.1524 11.8289 37.4023 13.5726 41.3192 17.0168L41.8359 15.833L42.503 17.5334C47.8618 23.8834 55.9749 37.8314 58.363 49.4974L56.5549 50.6595Z" fill="url(#paint20_linear_1494_4968)"/>
<path d="M60.5475 47.2088C52.9083 38.6847 47.8661 27.9686 46.4771 21.5809L45.4812 20.0497L46.7448 20.3173C46.2842 16.259 46.887 12.9337 47.1547 11.6702C48.2181 12.4032 50.943 14.4022 53.4001 17.6648L54.1332 16.6014L54.4636 18.3978C57.8491 23.9898 61.5603 35.2364 61.8786 46.6783L60.5475 47.2088Z" fill="url(#paint21_linear_1494_4968)"/>
<defs>
<linearGradient id="paint0_linear_1494_4968" x1="77.2003" y1="28.4218" x2="64.712" y2="27.1808" gradientUnits="userSpaceOnUse">
<stop stop-color="#EFEDFE"/>
<stop offset="1" stop-color="white"/>
</linearGradient>
<linearGradient id="paint1_linear_1494_4968" x1="83.883" y1="32.3455" x2="73.448" y2="29.154" gradientUnits="userSpaceOnUse">
<stop stop-color="#EFEDFE"/>
<stop offset="1" stop-color="white"/>
</linearGradient>
<linearGradient id="paint2_linear_1494_4968" x1="98.9466" y1="38.6667" x2="89.112" y2="30.8706" gradientUnits="userSpaceOnUse">
<stop stop-color="#EFEDFE"/>
<stop offset="1" stop-color="white"/>
</linearGradient>
<linearGradient id="paint3_linear_1494_4968" x1="102.446" y1="45.5808" x2="95.3938" y2="37.2541" gradientUnits="userSpaceOnUse">
<stop stop-color="#EFEDFE"/>
<stop offset="1" stop-color="white"/>
</linearGradient>
<linearGradient id="paint4_linear_1494_4968" x1="111.698" y1="59.0352" x2="107.638" y2="47.1602" gradientUnits="userSpaceOnUse">
<stop stop-color="#EFEDFE"/>
<stop offset="1" stop-color="white"/>
</linearGradient>
<linearGradient id="paint5_linear_1494_4968" x1="110.905" y1="66.7442" x2="109.473" y2="55.9266" gradientUnits="userSpaceOnUse">
<stop stop-color="#EFEDFE"/>
<stop offset="1" stop-color="white"/>
</linearGradient>
<linearGradient id="paint6_linear_1494_4968" x1="111.414" y1="83.0714" x2="114.419" y2="70.8867" gradientUnits="userSpaceOnUse">
<stop stop-color="#EFEDFE"/>
<stop offset="1" stop-color="white"/>
</linearGradient>
<linearGradient id="paint7_linear_1494_4968" x1="106.58" y1="89.1281" x2="111.224" y2="79.2534" gradientUnits="userSpaceOnUse">
<stop stop-color="#EFEDFE"/>
<stop offset="1" stop-color="white"/>
</linearGradient>
<linearGradient id="paint8_linear_1494_4968" x1="98.1792" y1="103.138" x2="107.295" y2="94.5128" gradientUnits="userSpaceOnUse">
<stop stop-color="#EFEDFE"/>
<stop offset="1" stop-color="white"/>
</linearGradient>
<linearGradient id="paint9_linear_1494_4968" x1="90.8372" y1="105.619" x2="100.083" y2="99.823" gradientUnits="userSpaceOnUse">
<stop stop-color="#EFEDFE"/>
<stop offset="1" stop-color="white"/>
</linearGradient>
<linearGradient id="paint10_linear_1494_4968" x1="76.1965" y1="112.863" x2="88.5287" y2="110.536" gradientUnits="userSpaceOnUse">
<stop stop-color="#EFEDFE"/>
<stop offset="1" stop-color="white"/>
</linearGradient>
<linearGradient id="paint11_linear_1494_4968" x1="68.6782" y1="110.98" x2="79.5895" y2="111.103" gradientUnits="userSpaceOnUse">
<stop stop-color="#EFEDFE"/>
<stop offset="1" stop-color="white"/>
</linearGradient>
<linearGradient id="paint12_linear_1494_4968" x1="52.4519" y1="109.161" x2="64.0851" y2="113.869" gradientUnits="userSpaceOnUse">
<stop stop-color="#EFEDFE"/>
<stop offset="1" stop-color="white"/>
</linearGradient>
<linearGradient id="paint13_linear_1494_4968" x1="47.1448" y1="103.514" x2="56.2583" y2="109.515" gradientUnits="userSpaceOnUse">
<stop stop-color="#EFEDFE"/>
<stop offset="1" stop-color="white"/>
</linearGradient>
<linearGradient id="paint14_linear_1494_4968" x1="34.4733" y1="93.2058" x2="41.7137" y2="103.456" gradientUnits="userSpaceOnUse">
<stop stop-color="#EFEDFE"/>
<stop offset="1" stop-color="white"/>
</linearGradient>
<linearGradient id="paint15_linear_1494_4968" x1="33.0614" y1="85.5856" x2="37.483" y2="95.5617" gradientUnits="userSpaceOnUse">
<stop stop-color="#EFEDFE"/>
<stop offset="1" stop-color="white"/>
</linearGradient>
<linearGradient id="paint16_linear_1494_4968" x1="27.9744" y1="70.0628" x2="28.523" y2="82.6006" gradientUnits="userSpaceOnUse">
<stop stop-color="#EFEDFE"/>
<stop offset="1" stop-color="white"/>
</linearGradient>
<linearGradient id="paint17_linear_1494_4968" x1="30.9076" y1="62.8896" x2="29.2333" y2="73.6724" gradientUnits="userSpaceOnUse">
<stop stop-color="#EFEDFE"/>
<stop offset="1" stop-color="white"/>
</linearGradient>
<linearGradient id="paint18_linear_1494_4968" x1="35.0214" y1="47.0809" x2="28.7039" y2="57.9247" gradientUnits="userSpaceOnUse">
<stop stop-color="#EFEDFE"/>
<stop offset="1" stop-color="white"/>
</linearGradient>
<linearGradient id="paint19_linear_1494_4968" x1="41.367" y1="42.6323" x2="34.1285" y2="50.7979" gradientUnits="userSpaceOnUse">
<stop stop-color="#EFEDFE"/>
<stop offset="1" stop-color="white"/>
</linearGradient>
<linearGradient id="paint20_linear_1494_4968" x1="53.3686" y1="31.5609" x2="42.1921" y2="37.2692" gradientUnits="userSpaceOnUse">
<stop stop-color="#EFEDFE"/>
<stop offset="1" stop-color="white"/>
</linearGradient>
<linearGradient id="paint21_linear_1494_4968" x1="61.112" y1="31.2483" x2="50.6083" y2="34.2055" gradientUnits="userSpaceOnUse">
<stop stop-color="#EFEDFE"/>
<stop offset="1" stop-color="white"/>
</linearGradient>
</defs>
</svg>
